<svg xmlns="http://www.w3.org/2000/svg" viewBox="0 0 64 80" x="0px" y="0px"><title>CHECKING-list-skill-check-pen-document</title><g data-name="Layer 24"><path d="M62,37H54a1,1,0,0,0-1,1v2H51.41l-2.5-2.5,2.8-2.79a1,1,0,0,0,0-1.42l-4-4a1,1,0,0,0-1.42,0L41.59,34H36a1,1,0,0,0-.71.29l-.7.71H18v2H32.59l-2,2H18v2H28.59l-.3.29A1,1,0,0,0,28,42v5.59l-2.71,2.7a1,1,0,0,0-.27.51l-1,5a1,1,0,0,0,.27.91A1,1,0,0,0,25,57l.2,0,5-1a1,1,0,0,0,.51-.27l4-4A3.61,3.61,0,0,0,36,52h5.59l2.7,2.71A1,1,0,0,0,45,55v6H3V3H45V27h2V2a1,1,0,0,0-1-1H2A1,1,0,0,0,1,2V62a1,1,0,0,0,1,1H46a1,1,0,0,0,1-1V55h6v1a1,1,0,0,0,1,1h8a1,1,0,0,0,1-1V38A1,1,0,0,0,62,37ZM47,31.41,49.59,34l-11,11H36a3.5,3.5,0,0,0-2.89,5.47L30,53.59,27.41,51Zm-17,11L36.41,36h3.18L30,45.59ZM26.61,53,28,54.39l-1.7.34Zm18.8,0-2.7-2.71A1,1,0,0,0,42,50H36a1.5,1.5,0,0,1,0-3h9V45H41.41l6.09-6.09,2.79,2.8A1,1,0,0,0,51,42h2V53ZM61,55H55V39h6Z"/><path d="M14,45H6a1,1,0,0,0-1,1v8a1,1,0,0,0,1,1h8a1,1,0,0,0,1-1V47.41l2.71-2.7-1.42-1.42-1.83,1.84A.91.91,0,0,0,14,45Zm-1,8H7V47h5.59L10,49.59l-1.29-1.3L7.29,49.71l2,2a1,1,0,0,0,1.42,0L13,49.41Z"/><path d="M16.29,7.29,14.46,9.13A.91.91,0,0,0,14,9H6a1,1,0,0,0-1,1v8a1,1,0,0,0,1,1h8a1,1,0,0,0,1-1V11.41l2.71-2.7ZM13,17H7V11h5.59L10,13.59l-1.29-1.3L7.29,13.71l2,2a1,1,0,0,0,1.42,0L13,13.41Z"/><path d="M16.29,19.29l-1.83,1.84A.91.91,0,0,0,14,21H6a1,1,0,0,0-1,1v8a1,1,0,0,0,1,1h8a1,1,0,0,0,1-1V23.41l2.71-2.7ZM13,29H7V23h5.59L10,25.59l-1.29-1.3L7.29,25.71l2,2a1,1,0,0,0,1.42,0L13,25.41Z"/><path d="M16.29,31.29l-1.83,1.84A.91.91,0,0,0,14,33H6a1,1,0,0,0-1,1v8a1,1,0,0,0,1,1h8a1,1,0,0,0,1-1V35.41l2.71-2.7ZM13,41H7V35h5.59L10,37.59l-1.29-1.3L7.29,37.71l2,2a1,1,0,0,0,1.42,0L13,37.41Z"/><rect x="18" y="11" width="25" height="2"/><rect x="18" y="15" width="21" height="2"/><rect x="41" y="15" width="2" height="2"/><rect x="18" y="23" width="25" height="2"/><rect x="18" y="27" width="21" height="2"/><rect x="41" y="27" width="2" height="2"/><rect x="18" y="47" width="5" height="2"/><rect x="18" y="51" width="5" height="2"/></g><text x="0" y="79" fill="#000000" font-size="5px" font-weight="bold" font-family="'Helvetica Neue', Helvetica, Arial-Unicode, Arial, Sans-serif">Created by Start Up Graphic Design</text><text x="0" y="84" fill="#000000" font-size="5px" font-weight="bold" font-family="'Helvetica Neue', Helvetica, Arial-Unicode, Arial, Sans-serif">from the Noun Project</text></svg>