<svg xmlns="http://www.w3.org/2000/svg" xmlns:xlink="http://www.w3.org/1999/xlink" version="1.1" x="0px" y="0px" viewBox="0 0 512 640" style="enable-background:new 0 0 512 512;" xml:space="preserve"><g><g><path d="M426,91h-30V61c0-5.523-4.478-10-10-10H176v-5c0-13.785-11.215-25-25-25s-25,11.215-25,25v5H86c-5.523,0-10,4.477-10,10    v380c0,5.522,4.477,10,10,10h30v30c0,5.522,4.477,10,10,10h300c5.522,0,10-4.478,10-10V101C436,95.477,431.522,91,426,91z M146,46    c0-2.757,2.243-5,5-5s5,2.243,5,5v5h-10V46z M96,71h60v40c0,5.523,4.477,10,10,10s10-4.477,10-10V71h200v360H96V71z M416,471H136    v-20h250c5.522,0,10-4.478,10-10V111h20V471z"/><circle cx="456" cy="91" r="10"/><circle cx="466" cy="211" r="10"/><circle cx="36" cy="131" r="10"/><circle cx="56" cy="271" r="10"/><circle cx="56" cy="461" r="10"/><path d="M41,341c-13.785,0-25,11.215-25,25s11.215,25,25,25s25-11.215,25-25S54.785,341,41,341z M41,371c-2.757,0-5-2.243-5-5    s2.243-5,5-5s5,2.243,5,5S43.757,371,41,371z"/><path d="M471,421c-13.785,0-25,11.215-25,25s11.215,25,25,25s25-11.215,25-25S484.785,421,471,421z M471,451c-2.757,0-5-2.243-5-5    s2.243-5,5-5s5,2.243,5,5S473.757,451,471,451z"/><path d="M126,171h80c5.523,0,10-4.477,10-10s-4.477-10-10-10h-80c-5.523,0-10,4.477-10,10S120.477,171,126,171z"/><path d="M126,201h140c5.522,0,10-4.477,10-10s-4.478-10-10-10H126c-5.523,0-10,4.477-10,10S120.477,201,126,201z"/><path d="M303.573,198.071c3.902,3.904,10.236,3.904,14.143,0l35.355-35.355c3.905-3.905,3.905-10.237,0-14.142    c-3.905-3.905-10.235-3.905-14.143,0l-28.284,28.284l-7.07-7.071c-3.904-3.905-10.234-3.905-14.143,0    c-3.905,3.905-3.905,10.237,0,14.142L303.573,198.071z"/><path d="M126,241h80c5.523,0,10-4.477,10-10s-4.477-10-10-10h-80c-5.523,0-10,4.477-10,10S120.477,241,126,241z"/><path d="M126,271h140c5.522,0,10-4.478,10-10c0-5.523-4.478-10-10-10H126c-5.523,0-10,4.477-10,10    C116,266.522,120.477,271,126,271z"/><path d="M303.573,268.071c3.903,3.903,10.236,3.904,14.143,0l35.355-35.355c3.905-3.905,3.905-10.237,0-14.142    c-3.905-3.905-10.235-3.905-14.143,0l-28.284,28.284l-7.07-7.071c-3.904-3.905-10.234-3.905-14.143,0    c-3.905,3.905-3.905,10.237,0,14.142L303.573,268.071z"/><path d="M126,311h80c5.523,0,10-4.478,10-10s-4.477-10-10-10h-80c-5.523,0-10,4.478-10,10S120.477,311,126,311z"/><path d="M126,341h140c5.522,0,10-4.478,10-10s-4.478-10-10-10H126c-5.523,0-10,4.478-10,10S120.477,341,126,341z"/><path d="M303.573,338.071c3.903,3.903,10.236,3.904,14.143,0l35.355-35.355c3.905-3.905,3.905-10.237,0-14.143    c-3.906-3.904-10.236-3.904-14.143,0l-28.284,28.284l-7.07-7.071c-3.904-3.903-10.234-3.904-14.143,0    c-3.905,3.905-3.905,10.236,0,14.143L303.573,338.071z"/><path d="M126,381h80c5.523,0,10-4.478,10-10s-4.477-10-10-10h-80c-5.523,0-10,4.478-10,10S120.477,381,126,381z"/><path d="M266,411c5.522,0,10-4.478,10-10s-4.478-10-10-10H126c-5.523,0-10,4.478-10,10s4.477,10,10,10H266z"/><circle cx="236" cy="161" r="10"/><circle cx="296" cy="401" r="10"/></g></g><text x="0" y="527" fill="#000000" font-size="5px" font-weight="bold" font-family="'Helvetica Neue', Helvetica, Arial-Unicode, Arial, Sans-serif"></text><text x="0" y="532" fill="#000000" font-size="5px" font-weight="bold" font-family="'Helvetica Neue', Helvetica, Arial-Unicode, Arial, Sans-serif"></text></svg>