<svg xmlns="http://www.w3.org/2000/svg" viewBox="0 0 64 80" x="0px" y="0px"><title>List icon</title><desc>List icon for website, application, printing, document, poster design, etc.</desc><metadata><?xpacket begin="&#65279;" id="W5M0MpCehiHzreSzNTczkc9d"?><x:xmpmeta xmlns:x="adobe:ns:meta/" x:xmptk="Adobe XMP Core 6.0-c002 79.164352, 2020/01/30-15:50:38        "/><?xpacket end="w"?></metadata><g><path d="M11,27h8a1,1,0,0,0,1-1V19.414l1.707-1.707a1,1,0,0,0-1.414-1.414l-.833.833A.971.971,0,0,0,19,17H11a1,1,0,0,0-1,1v8A1,1,0,0,0,11,27Zm1-8h5.586L15,21.586l-1.293-1.293a1,1,0,1,0-1.414,1.414l2,2a1,1,0,0,0,1.414,0L18,21.414V25H12Z"/><path d="M10,39a1,1,0,0,0,1,1h8a1,1,0,0,0,1-1V32.414l1.707-1.707a1,1,0,0,0-1.414-1.414l-.833.833A.971.971,0,0,0,19,30H11a1,1,0,0,0-1,1Zm2-7h5.586L15,34.586l-1.293-1.293a1,1,0,1,0-1.414,1.414l2,2a1,1,0,0,0,1.414,0L18,34.414V38H12Z"/><path d="M10,52a1,1,0,0,0,1,1h8a1,1,0,0,0,1-1V44a1,1,0,0,0-1-1H11a1,1,0,0,0-1,1Zm2-7h6v6H12Z"/><path d="M24,40h7a1,1,0,0,0,0-2H24a1,1,0,0,0,0,2Z"/><path d="M24,47h5a1,1,0,0,0,0-2H24a1,1,0,0,0,0,2Z"/><path d="M48,60H7V43a1,1,0,0,0-2,0V61a1,1,0,0,0,1,1H48a1,1,0,0,0,0-2Z"/><path d="M53.552,48.033a1,1,0,0,0-.949,1.049L52.949,56h-17.9l.9-18H39v3a1,1,0,0,0,2,0V38h6v3a1,1,0,0,0,2,0V38h3.049l.353,7.086a1,1,0,1,0,2-.1L54,36.95A1,1,0,0,0,53,36H49V35a5,5,0,0,0-10,0v1H35a1,1,0,0,0-1,.95L33.3,51H24a1,1,0,0,0,0,2h9.2L33,56.95A1,1,0,0,0,34,58H54a1,1,0,0,0,1-1.05l-.4-7.968A1,1,0,0,0,53.552,48.033ZM41,35a3,3,0,0,1,6,0v1H41Z"/><path d="M44,44a4,4,0,1,0,4,4A4,4,0,0,0,44,44Zm0,6a2,2,0,1,1,2-2A2,2,0,0,1,44,50Z"/><path d="M57.828,3.172a4.093,4.093,0,0,0-5.656,0L49,6.344V3a1,1,0,0,0-1-1H16a1,1,0,0,0-.707.293l-10,10A1,1,0,0,0,5,13V39a1,1,0,0,0,2,0V14h9a1,1,0,0,0,1-1V4H47V8.344l-4.914,4.914A1,1,0,0,0,43.5,14.672l5.843-5.843,2.829,2.828L47.3,16.533l0,0L35.2,28.628,32.372,25.8l8.3-8.3a1,1,0,1,0-1.414-1.414L35.343,20H24a1,1,0,0,0,0,2h9.343l-3,3H24a1,1,0,0,0,0,2h5.5l-1.615,4.847a1,1,0,0,0,.241,1.023.974.974,0,0,0,.2.13H24a1,1,0,0,0,0,2h9a1,1,0,0,0,0-2H29.487l6.031-2.01a1,1,0,0,0,.39-.241L47,19.657V29a1,1,0,0,0,2,0V17.657l5.291-5.291,0,0,0,0,3.533-3.534a4,4,0,0,0,0-5.656ZM15,12H8.414L15,5.414ZM30.418,30.582,31.4,27.65l1.955,1.955ZM53.586,10.243,50.757,7.415,52.172,6,55,8.828Zm2.828-2.829L53.586,4.586a2.047,2.047,0,0,1,2.828,0,2,2,0,0,1,0,2.828Z"/></g><text x="0" y="79" fill="#000000" font-size="5px" font-weight="bold" font-family="'Helvetica Neue', Helvetica, Arial-Unicode, Arial, Sans-serif">Created by Tippawan Sookruay</text><text x="0" y="84" fill="#000000" font-size="5px" font-weight="bold" font-family="'Helvetica Neue', Helvetica, Arial-Unicode, Arial, Sans-serif">from the Noun Project</text></svg>