<svg xmlns="http://www.w3.org/2000/svg" xmlns:xlink="http://www.w3.org/1999/xlink" version="1.1" x="0px" y="0px" viewBox="0 0 100 125" style="enable-background:new 0 0 100 100;" xml:space="preserve"><style type="text/css">
	.st0{fill:none;}
</style><title>mini chat</title><path class="st0" d="M93.9,92.6l-6.5-29.3v0.8v-0.8l-0.1-0.5L87,61.8l0.2-1.1c0.2-1.7,0.4-3.4,0.4-5.1v-17c0-17.9-13-32.5-29-32.5  H35C19,6,6,20.6,6,38.5v17c0,17.9,13,32.5,29,32.5h23.6c1,0,2-0.1,3-0.2h0.3h8.3l0.7,0.1l22.7,5.8L94,94C94,93.5,94,93.1,93.9,92.6z   M27.7,55.8c-3.2,0-5.7-2.6-5.7-5.8c0-3.2,2.6-5.7,5.7-5.8c0,0,0,0,0,0h0c3.2,0,5.7,2.6,5.7,5.8C33.5,53.2,30.9,55.8,27.7,55.8z   M48,55.8c-3.2,0-5.8-2.6-5.8-5.8c0-3.2,2.6-5.7,5.8-5.8c3.2,0,5.8,2.6,5.8,5.8S51.2,55.8,48,55.8z M68.3,55.7  c-3.2,0-5.7-2.6-5.7-5.7c0-3.2,2.5-5.7,5.7-5.8c0,0,0,0,0.1,0c3.2,0,5.7,2.6,5.7,5.8S71.5,55.8,68.3,55.7z"/><path d="M99.7,91.3l-6.6-29.7c0.3-2,0.4-4,0.4-6v-17C93.6,17.3,77.8,0,58.6,0H35C15.7,0,0,17.3,0,38.5v17c0,21.2,15.7,38.5,35,38.5  h23.6c1.2,0,2.4-0.1,3.7-0.2h7.1l22.7,5.8c0.7,0.2,1.5,0.3,2.2,0.3C98.5,100,100.8,96.5,99.7,91.3z M93.6,93.9L70.9,88l-0.7-0.2  h-8.3h-0.3c-1,0.1-2,0.2-3,0.2H35C19,88,6,73.4,6,55.5V38.5v-0.1v0.1C6,20.6,19,6,35,6h23.6c16,0,29,14.6,29,32.5v17  c0,1.3-0.1,2.5-0.2,3.8v4.1l6.4,29.1C93.9,93,94,93.5,94,94L93.6,93.9z"/><path d="M47.9,55.8c3.2,0,5.8-2.5,5.8-5.7s-2.5-5.8-5.7-5.8s-5.8,2.5-5.8,5.7c0,0,0,0,0,0.1C42.3,53.1,44.8,55.7,47.9,55.8z"/><path d="M27.7,55.7c3.2,0,5.8-2.5,5.8-5.7s-2.5-5.8-5.7-5.8S22,46.8,22,50c0,0,0,0,0,0C22,53.2,24.6,55.7,27.7,55.7z"/><path d="M68.3,55.8c3.2,0,5.8-2.5,5.8-5.7c0-3.2-2.5-5.8-5.7-5.8s-5.8,2.5-5.8,5.7c0,0,0,0,0,0C62.6,53.2,65.1,55.7,68.3,55.8z"/><text x="0" y="115" fill="#000000" font-size="5px" font-weight="bold" font-family="'Helvetica Neue', Helvetica, Arial-Unicode, Arial, Sans-serif"></text><text x="0" y="120" fill="#000000" font-size="5px" font-weight="bold" font-family="'Helvetica Neue', Helvetica, Arial-Unicode, Arial, Sans-serif"></text></svg>