<svg xmlns="http://www.w3.org/2000/svg" data-name="Layer 1" viewBox="0 0 64 80" x="0px" y="0px"><path d="M48,41V19a3,3,0,0,0-3-3H19a3,3,0,0,0-3,3V41a3,3,0,0,0,3,3h9.586l-2.293,2.293A1,1,0,0,0,27,48H37a1,1,0,0,0,.707-1.707L35.414,44H45A3,3,0,0,0,48,41ZM29.414,46l2-2h1.172l2,2ZM19,42a1,1,0,0,1-1-1V19a1,1,0,0,1,1-1H45a1,1,0,0,1,1,1V41a1,1,0,0,1-1,1Z"/><path d="M41.938,27.6a1.819,1.819,0,0,0-.2-1.421l-1.45-2.4a1.941,1.941,0,0,0-2.575-.674l-.485.276a8.794,8.794,0,0,0-1.871-1.045v-.475A1.886,1.886,0,0,0,33.45,20h-2.9a1.886,1.886,0,0,0-1.9,1.864v.476a7.083,7.083,0,0,0-1.827,1.06l-.53-.293a1.938,1.938,0,0,0-2.574.676l-1.45,2.4a1.819,1.819,0,0,0-.2,1.421,1.856,1.856,0,0,0,.907,1.152l.445.245a7.829,7.829,0,0,0,0,2l-.445.245a1.856,1.856,0,0,0-.907,1.152,1.819,1.819,0,0,0,.2,1.421l1.45,2.4a1.941,1.941,0,0,0,2.575.674l.485-.276a8.794,8.794,0,0,0,1.871,1.045v.475A1.886,1.886,0,0,0,30.55,40h2.9a1.886,1.886,0,0,0,1.9-1.864V37.66a7.083,7.083,0,0,0,1.827-1.06l.53.293a1.94,1.94,0,0,0,2.574-.676l1.45-2.4a1.819,1.819,0,0,0,.2-1.421,1.856,1.856,0,0,0-.907-1.152L40.586,31a7.829,7.829,0,0,0,0-2l.445-.245A1.856,1.856,0,0,0,41.938,27.6ZM38.65,30a6.076,6.076,0,0,1-.061.847,1.845,1.845,0,0,0,.952,1.859l.4.218-1.32,2.184-.471-.26a1.966,1.966,0,0,0-2.1.153,6.762,6.762,0,0,1-1.472.818,1.884,1.884,0,0,0-1.218,1.738V38H30.646v-.443a1.885,1.885,0,0,0-1.217-1.738A6.753,6.753,0,0,1,27.957,35a1.967,1.967,0,0,0-2.105-.153l-.47.259-1.32-2.184.4-.218a1.845,1.845,0,0,0,.952-1.859,5.911,5.911,0,0,1,0-1.694,1.845,1.845,0,0,0-.952-1.859l-.4-.218,1.32-2.184.471.26a1.97,1.97,0,0,0,2.1-.153,6.762,6.762,0,0,1,1.472-.818,1.884,1.884,0,0,0,1.218-1.738V22h2.708v.443a1.885,1.885,0,0,0,1.217,1.738A6.753,6.753,0,0,1,36.043,25a1.967,1.967,0,0,0,2.105.153l.47-.259,1.32,2.184-.4.218a1.845,1.845,0,0,0-.952,1.859A6.076,6.076,0,0,1,38.65,30Z"/><path d="M32,26a4,4,0,1,0,4,4A4,4,0,0,0,32,26Zm0,6a2,2,0,1,1,2-2A2,2,0,0,1,32,32Z"/><path d="M59.2,7.021a3,3,0,1,0-4.406,0A2.994,2.994,0,0,0,52,10v6a1,1,0,0,0,1,1h8a1,1,0,0,0,1-1V10A2.994,2.994,0,0,0,59.2,7.021ZM57,4a1,1,0,1,1-1,1A1,1,0,0,1,57,4Zm3,11H54V10a1,1,0,0,1,1-1h4a1,1,0,0,1,1,1Z"/><path d="M3,17h8a1,1,0,0,0,1-1V10A2.994,2.994,0,0,0,9.2,7.021a3,3,0,1,0-4.406,0A2.994,2.994,0,0,0,2,10v6A1,1,0,0,0,3,17ZM7,4A1,1,0,1,1,6,5,1,1,0,0,1,7,4ZM4,10A1,1,0,0,1,5,9H9a1,1,0,0,1,1,1v5H4Z"/><path d="M3,62h8a1,1,0,0,0,1-1V55a2.994,2.994,0,0,0-2.8-2.979,3,3,0,1,0-4.406,0A2.994,2.994,0,0,0,2,55v6A1,1,0,0,0,3,62ZM7,49a1,1,0,1,1-1,1A1,1,0,0,1,7,49ZM4,55a1,1,0,0,1,1-1H9a1,1,0,0,1,1,1v5H4Z"/><path d="M59.2,52.021a3,3,0,1,0-4.406,0A2.994,2.994,0,0,0,52,55v6a1,1,0,0,0,1,1h8a1,1,0,0,0,1-1V55A2.994,2.994,0,0,0,59.2,52.021ZM57,49a1,1,0,1,1-1,1A1,1,0,0,1,57,49Zm3,11H54V55a1,1,0,0,1,1-1h4a1,1,0,0,1,1,1Z"/><path d="M57.5,20.414a28.087,28.087,0,0,1,0,23.172l1.82.828a30.081,30.081,0,0,0,0-24.828Z"/><path d="M32,4A27.8,27.8,0,0,1,48.413,9.312l1.174-1.619a30.012,30.012,0,0,0-35.174,0l1.174,1.619A27.8,27.8,0,0,1,32,4Z"/><path d="M6.5,43.586a28.087,28.087,0,0,1,0-23.172l-1.82-.828a30.081,30.081,0,0,0,0,24.828Z"/><path d="M49.587,56.307l-1.174-1.619a28.012,28.012,0,0,1-32.826,0l-1.174,1.619a30.012,30.012,0,0,0,35.174,0Z"/><text x="0" y="79" fill="#000000" font-size="5px" font-weight="bold" font-family="'Helvetica Neue', Helvetica, Arial-Unicode, Arial, Sans-serif">Created by Kamin Ginkaew</text><text x="0" y="84" fill="#000000" font-size="5px" font-weight="bold" font-family="'Helvetica Neue', Helvetica, Arial-Unicode, Arial, Sans-serif">from the Noun Project</text></svg>