<svg xmlns="http://www.w3.org/2000/svg" xmlns:xlink="http://www.w3.org/1999/xlink" xml:space="preserve" version="1.1" style="shape-rendering:geometricPrecision;text-rendering:geometricPrecision;image-rendering:optimizeQuality;" viewBox="0 0 888.89 1111.1125" x="0px" y="0px" fill-rule="evenodd" clip-rule="evenodd"><defs><style type="text/css">
   
    .fil0 {fill:black;fill-rule:nonzero}
   
  </style></defs><g><path class="fil0" d="M520.74 88.33c0,-11.5 9.33,-20.83 20.83,-20.83 11.5,0 20.83,9.33 20.83,20.83l0 141.06 136.44 0c11.5,0 20.83,9.33 20.83,20.83 0,11.5 -9.33,20.83 -20.83,20.83l-157.28 0c-11.5,0 -20.83,-9.33 -20.83,-20.83l0 -161.89zm154.07 481.89l31.11 9.56c-4.78,17.52 -12.74,30.52 -23.85,39.04 -11.11,8.48 -25.19,12.74 -42.26,12.74 -21.15,0 -38.52,-7.22 -52.15,-21.67 -13.59,-14.44 -20.41,-34.19 -20.41,-59.26 0,-26.48 6.85,-47.07 20.52,-61.74 13.67,-14.67 31.67,-22 53.96,-22 19.48,0 35.3,5.78 47.44,17.3 7.26,6.81 12.67,16.59 16.3,29.37l-31.78 7.56c-1.89,-8.22 -5.81,-14.74 -11.78,-19.52 -6,-4.78 -13.26,-7.15 -21.78,-7.15 -11.81,0 -21.41,4.22 -28.74,12.7 -7.37,8.44 -11.04,22.15 -11.04,41.11 0,20.07 3.63,34.41 10.85,42.93 7.26,8.56 16.67,12.81 28.26,12.81 8.56,0 15.93,-2.7 22.07,-8.15 6.15,-5.44 10.59,-13.96 13.26,-25.63zm-281.3 -19.93c0,-16.22 2.44,-29.85 7.3,-40.89 3.59,-8.11 8.56,-15.41 14.81,-21.85 6.26,-6.44 13.11,-11.22 20.56,-14.37 9.93,-4.19 21.37,-6.3 34.33,-6.3 23.48,0 42.22,7.3 56.33,21.85 14.07,14.59 21.11,34.85 21.11,60.81 0,25.74 -7,45.89 -20.96,60.41 -13.96,14.56 -32.67,21.81 -56.04,21.81 -23.67,0 -42.52,-7.22 -56.48,-21.7 -13.96,-14.44 -20.96,-34.37 -20.96,-59.78zm33.11 -1.07c0,18.04 4.19,31.7 12.52,41.04 8.33,9.3 18.93,13.96 31.74,13.96 12.85,0 23.37,-4.63 31.63,-13.85 8.22,-9.26 12.33,-23.11 12.33,-41.59 0,-18.26 -4,-31.89 -12.04,-40.85 -8,-9 -18.63,-13.48 -31.93,-13.48 -13.26,0 -23.96,4.56 -32.07,13.63 -8.11,9.11 -12.19,22.81 -12.19,41.15zm-186.93 -79.44l58.59 0c13.22,0 23.3,1 30.22,3.04 9.3,2.74 17.3,7.63 23.93,14.67 6.67,7 11.7,15.59 15.19,25.78 3.44,10.15 5.19,22.7 5.19,37.59 0,13.11 -1.63,24.37 -4.89,33.85 -3.96,11.59 -9.63,20.96 -17,28.11 -5.56,5.44 -13.07,9.67 -22.52,12.7 -7.07,2.26 -16.52,3.37 -28.37,3.37l-60.33 0 0 -159.11zm32.22 26.89l0 105.33 23.89 0c8.93,0 15.37,-0.52 19.33,-1.52 5.22,-1.3 9.52,-3.52 12.93,-6.63 3.44,-3.11 6.22,-8.22 8.37,-15.33 2.19,-7.11 3.26,-16.85 3.26,-29.15 0,-12.3 -1.07,-21.7 -3.26,-28.3 -2.15,-6.59 -5.19,-11.7 -9.07,-15.41 -3.89,-3.67 -8.81,-6.19 -14.81,-7.48 -4.44,-1 -13.22,-1.52 -26.26,-1.52l-14.37 0zm-151.2 -86.93l-76.31 0 0 282.06 75.35 0 0.96 -0.02 647.47 0 1.14 0.03 75.14 0 0 -282.06 -76.28 0 -0.54 -0.01 -87.51 0c-11.5,0 -20.83,-9.33 -20.83,-20.83 0,-11.5 9.33,-20.83 20.83,-20.83l67.22 0 0 -109.24 -214.4 -214.4 -391.4 0 0 323.64 411.84 0c11.5,0 20.83,9.33 20.83,20.83 0,11.5 -9.33,20.83 -20.83,20.83l-432.68 0 -0.01 0zm-20.83 323.72l-76.31 0c-11.5,0 -20.83,-9.33 -20.83,-20.83l0 -323.72c0,-11.5 9.33,-20.83 20.83,-20.83l76.31 0 0 -344.47c0,-11.5 9.33,-20.83 20.83,-20.83l420.86 0c5.33,0 10.66,2.04 14.73,6.11l226.37 226.37c3.92,3.79 6.35,9.1 6.35,14.98l0 117.87 76.28 0c11.5,0 20.83,9.33 20.83,20.83l0 323.72c0,11.5 -9.33,20.83 -20.83,20.83l-76.28 0 0 131.83c0,11.5 -9.33,20.83 -20.83,20.83l-647.47 0c-11.5,0 -20.83,-9.33 -20.83,-20.83l0 -131.84zm41.67 111.01l605.8 0 0 -111.03 -605.8 0 0 111.03z"/></g><text x="0" y="903.89" fill="#000000" font-size="5px" font-weight="bold" font-family="'Helvetica Neue', Helvetica, Arial-Unicode, Arial, Sans-serif">Created by popcornarts</text><text x="0" y="908.89" fill="#000000" font-size="5px" font-weight="bold" font-family="'Helvetica Neue', Helvetica, Arial-Unicode, Arial, Sans-serif">from the Noun Project</text></svg>