<svg xmlns="http://www.w3.org/2000/svg" xmlns:xlink="http://www.w3.org/1999/xlink" version="1.1" x="0px" y="0px" viewBox="0 0 80 100" enable-background="new 0 0 80 80" xml:space="preserve"><path d="M7,22c0,1.104,0.896,2,2,2h6.263c0.892,3.445,4.017,6,7.737,6s6.845-2.555,7.737-6H71c1.104,0,2-0.896,2-2s-0.896-2-2-2  H30.737c-0.892-3.445-4.017-6-7.737-6s-6.845,2.555-7.737,6H9C7.896,20,7,20.896,7,22z M23,18c2.206,0,4,1.794,4,4s-1.794,4-4,4  s-4-1.794-4-4S20.794,18,23,18z"/><path d="M9,42h23.263c0.892,3.445,4.017,6,7.737,6s6.845-2.555,7.737-6H65c1.104,0,2-0.896,2-2s-0.896-2-2-2H47.737  c-0.892-3.445-4.017-6-7.737-6s-6.845,2.555-7.737,6H9c-1.104,0-2,0.896-2,2S7.896,42,9,42z M40,36c2.206,0,4,1.794,4,4  s-1.794,4-4,4s-4-1.794-4-4S37.794,36,40,36z"/><path d="M71,60c1.104,0,2-0.896,2-2s-0.896-2-2-2h-6.263c-0.892-3.445-4.017-6-7.737-6s-6.845,2.555-7.737,6H15  c-1.104,0-2,0.896-2,2s0.896,2,2,2h34.263c0.892,3.445,4.017,6,7.737,6s6.845-2.555,7.737-6H71z M57,62c-2.206,0-4-1.794-4-4  s1.794-4,4-4s4,1.794,4,4S59.206,62,57,62z"/><circle cx="9" cy="58" r="2"/><circle cx="71" cy="40" r="2"/><text x="0" y="95" fill="#000000" font-size="5px" font-weight="bold" font-family="'Helvetica Neue', Helvetica, Arial-Unicode, Arial, Sans-serif"></text><text x="0" y="100" fill="#000000" font-size="5px" font-weight="bold" font-family="'Helvetica Neue', Helvetica, Arial-Unicode, Arial, Sans-serif"></text></svg>