<svg xmlns="http://www.w3.org/2000/svg" xmlns:xlink="http://www.w3.org/1999/xlink" version="1.1" x="0px" y="0px" viewBox="0 0 512 640" style="enable-background:new 0 0 512 512;" xml:space="preserve"><g><g><g><g><g><path d="M276,396c-47.696,0-86.5-38.804-86.5-86.5S228.304,223,276,223s86.5,38.804,86.5,86.5S323.696,396,276,396z M276,233       c-42.182,0-76.5,34.317-76.5,76.5S233.818,386,276,386c42.183,0,76.5-34.317,76.5-76.5S318.183,233,276,233z"/></g><g><path d="M276,396c-26.743,0-47.691-37.995-47.691-86.5S249.257,223,276,223c26.742,0,47.69,37.995,47.69,86.5       S302.742,396,276,396z M276,233c-20.431,0-37.691,35.032-37.691,76.5S255.569,386,276,386s37.69-35.032,37.69-76.5       S296.431,233,276,233z"/></g><g><path d="M276,283.453c-23.862,0-46.082-9.509-62.566-26.775c-1.907-1.998-1.833-5.163,0.164-7.069s5.163-1.833,7.069,0.164       c14.578,15.271,34.229,23.681,55.333,23.681c21.104,0,40.756-8.41,55.335-23.682c1.906-1.997,5.071-2.071,7.068-0.164       c1.998,1.907,2.071,5.072,0.164,7.069C322.084,273.943,299.863,283.453,276,283.453z"/></g><g><path d="M334.953,370.777c-1.318,0-2.635-0.519-3.617-1.547c-14.58-15.272-34.232-23.683-55.336-23.683       c-20.993,0-40.571,8.334-55.129,23.468c-1.914,1.989-5.08,2.052-7.07,0.137s-2.051-5.08-0.137-7.07       c16.46-17.11,38.599-26.534,62.336-26.534c23.863,0,46.084,9.51,62.568,26.776c1.907,1.998,1.834,5.163-0.163,7.069       C337.437,370.318,336.193,370.777,334.953,370.777z"/></g><g><path d="M357.5,314.5h-163c-2.761,0-5-2.238-5-5s2.239-5,5-5h163c2.762,0,5,2.238,5,5S360.262,314.5,357.5,314.5z"/></g><g><path d="M276,396c-2.762,0-5-2.238-5-5V228c0-2.761,2.238-5,5-5s5,2.239,5,5v163C281,393.762,278.762,396,276,396z"/></g></g><g><path d="M406,446H145.667c-2.761,0-5-2.238-5-5s2.239-5,5-5H406c2.762,0,5,2.238,5,5S408.762,446,406,446z"/></g><g><path d="M406,106H145.667c-2.761,0-5-2.239-5-5s2.239-5,5-5H406c2.762,0,5,2.239,5,5S408.762,106,406,106z"/></g><g><path d="M286,76h-40c-2.761,0-5-2.239-5-5s2.239-5,5-5h40c2.762,0,5,2.239,5,5S288.762,76,286,76z"/></g><g><path d="M296,476h-40c-2.761,0-5-2.238-5-5s2.239-5,5-5h40c2.762,0,5,2.238,5,5S298.762,476,296,476z"/></g><g><path d="M76,386c-13.785,0-25-11.215-25-25s11.215-25,25-25s25,11.215,25,25S89.785,386,76,386z M76,346      c-8.271,0-15,6.729-15,15s6.729,15,15,15s15-6.729,15-15S84.271,346,76,346z"/></g><g><path d="M471,216c-16.542,0-30-13.458-30-30s13.458-30,30-30s30,13.458,30,30S487.542,216,471,216z M471,166      c-11.028,0-20,8.972-20,20s8.972,20,20,20s20-8.972,20-20S482.028,166,471,166z"/></g><path d="M66,111L66,111c5.521,0,10,4.477,10,10l0,0c0,5.523-4.479,10-10,10l0,0c-5.523,0-10-4.477-10-10l0,0     C56,115.477,60.477,111,66,111z"/><path d="M96,261L96,261c5.521,0,10,4.477,10,10l0,0c0,5.523-4.479,10-10,10l0,0c-5.523,0-10-4.477-10-10l0,0     C86,265.477,90.477,261,96,261z"/><path d="M466,61L466,61c5.521,0,10,4.477,10,10l0,0c0,5.523-4.479,10-10,10l0,0c-5.523,0-10-4.477-10-10l0,0     C456,65.477,460.477,61,466,61z"/><path d="M306,141L306,141c5.521,0,10,4.477,10,10l0,0c0,5.523-4.479,10-10,10l0,0c-5.523,0-10-4.477-10-10l0,0     C296,145.477,300.477,141,306,141z"/><path d="M316,61L316,61c5.521,0,10,4.477,10,10l0,0c0,5.523-4.479,10-10,10l0,0c-5.523,0-10-4.477-10-10l0,0     C306,65.477,310.477,61,316,61z"/><path d="M206,141L206,141c5.521,0,10,4.477,10,10l0,0c0,5.523-4.479,10-10,10l0,0c-5.523,0-10-4.477-10-10l0,0     C196,145.477,200.477,141,206,141z"/><path d="M456,271L456,271c5.521,0,10,4.477,10,10l0,0c0,5.523-4.479,10-10,10l0,0c-5.523,0-10-4.477-10-10l0,0     C446,275.477,450.477,271,456,271z"/><path d="M446,441L446,441c5.521,0,10,4.477,10,10l0,0c0,5.523-4.479,10-10,10l0,0c-5.523,0-10-4.477-10-10l0,0     C436,445.477,440.477,441,446,441z"/><path d="M96,431L96,431c5.521,0,10,4.477,10,10l0,0c0,5.523-4.479,10-10,10l0,0c-5.523,0-10-4.477-10-10l0,0     C86,435.477,90.477,431,96,431z"/><g><path d="M365.667,506H186c-24.997,0-45.333-20.336-45.333-45.333V81.333C140.667,56.336,161.003,36,186,36h179.667      C390.664,36,411,56.336,411,81.333v19.794l0.333,171.164L411,460.675C411,485.663,390.664,506,365.667,506z M186,46      c-19.483,0-35.333,15.85-35.333,35.333v379.334c0,19.482,15.85,35.333,35.333,35.333h179.667      C385.149,496,401,480.149,401,460.666l0.333-188.374L401,101.137V81.333C401,61.85,385.149,46,365.667,46H186z"/></g><g><path d="M366,156c-2.762,0-5-2.239-5-5v-20c0-2.761,2.238-5,5-5s5,2.239,5,5v20C371,153.761,368.762,156,366,156z"/></g><g><path d="M336,156c-2.762,0-5-2.239-5-5v-10c0-2.761,2.238-5,5-5s5,2.239,5,5v10C341,153.761,338.762,156,336,156z"/></g><g><path d="M226,186h-80c-2.761,0-5-2.239-5-5s2.239-5,5-5h80c2.761,0,5,2.239,5,5S228.761,186,226,186z"/></g><g><path d="M176,156h-30c-2.761,0-5-2.239-5-5s2.239-5,5-5h30c2.761,0,5,2.239,5,5S178.761,156,176,156z"/></g></g></g></g><text x="0" y="527" fill="#000000" font-size="5px" font-weight="bold" font-family="'Helvetica Neue', Helvetica, Arial-Unicode, Arial, Sans-serif"></text><text x="0" y="532" fill="#000000" font-size="5px" font-weight="bold" font-family="'Helvetica Neue', Helvetica, Arial-Unicode, Arial, Sans-serif"></text></svg>