<svg xmlns="http://www.w3.org/2000/svg" viewBox="0 0 512 640" x="0px" y="0px"><title>tea-cup-coffee-shop-hot</title><g><path d="M416,208H383.738l.043-1.3A24,24,0,0,0,376,160H301.522a35.888,35.888,0,0,1,22.657-8,51.815,51.815,0,0,0,46.326-28.358l-14.246-7.284A35.883,35.883,0,0,1,324.179,136a51.777,51.777,0,0,0-43.824,24H224.208a35.875,35.875,0,0,1,25.938-30.692l-4.292-15.414A51.931,51.931,0,0,0,208.146,160H152.208a35.817,35.817,0,0,1,7.909-18.921l-12.362-10.158A51.861,51.861,0,0,0,136.149,160H88a24,24,0,0,0-7.781,46.7l5.659,169.768A73.632,73.632,0,0,0,108.39,427.19q2.639,2.553,5.485,4.81H24a8,8,0,0,0-8,8v24a32.036,32.036,0,0,0,32,32H432a32.036,32.036,0,0,0,32-32V440a8,8,0,0,0-8-8H350.125q2.842-2.257,5.485-4.81a73.632,73.632,0,0,0,22.512-50.724L378.4,368H416a80,80,0,0,0,0-160ZM96.271,208H152v16H96.8ZM168,208H367.729l-.533,16H168Zm213.6,64H424a16,16,0,0,1,0,32H380.538Zm2.4-88a8.009,8.009,0,0,1-8,8H168V176H376A8.009,8.009,0,0,1,384,184ZM88,176h64v16H88a8,8,0,0,1,0-16ZM448,448v16a16.019,16.019,0,0,1-16,16H48a16.019,16.019,0,0,1-16-16V448ZM304.164,432H159.836a57.765,57.765,0,0,1-57.967-56.067L97.338,240H152v11.719l-20.438,13.625A8,8,0,0,0,128,272v48a8,8,0,0,0,8,8h48a8,8,0,0,0,8-8V272a8,8,0,0,0-3.562-6.656L168,251.719V240H366.662l-4.531,135.933A57.765,57.765,0,0,1,304.164,432ZM160,265.615l16,10.666V312H144V276.281ZM416,352H378.938L380,320h44a32,32,0,0,0,0-64H382.138l1.066-32H416a64,64,0,0,1,0,128Z"/><path d="M216,16H200a72.081,72.081,0,0,0,72,72h12a12,12,0,0,1,0,24H272v16h12a28,28,0,0,0,0-56H272A56.063,56.063,0,0,1,216,16Z"/><path d="M164.381,117.574l7.238,14.27A35.371,35.371,0,0,1,187.77,128H208V112H187.77A51.234,51.234,0,0,0,164.381,117.574Z"/><path d="M360.032,96.718l15.936-1.436A52.006,52.006,0,0,0,324.179,48V64A35.793,35.793,0,0,1,360.032,96.718Z"/><path d="M292.761,59.908l6.477-14.631A32.042,32.042,0,0,1,280.179,16h-16A48.053,48.053,0,0,0,292.761,59.908Z"/></g><text x="0" y="527" fill="#000000" font-size="5px" font-weight="bold" font-family="'Helvetica Neue', Helvetica, Arial-Unicode, Arial, Sans-serif"></text><text x="0" y="532" fill="#000000" font-size="5px" font-weight="bold" font-family="'Helvetica Neue', Helvetica, Arial-Unicode, Arial, Sans-serif"></text></svg>