<svg xmlns="http://www.w3.org/2000/svg" xmlns:xlink="http://www.w3.org/1999/xlink" version="1.1" x="0px" y="0px" viewBox="0 0 64 80" enable-background="new 0 0 64 64" xml:space="preserve"><g><path d="M58,9H6c-1.103,0-2,0.897-2,2v42c0,1.103,0.897,2,2,2h52c1.103,0,2-0.897,2-2V11C60,9.897,59.103,9,58,9z M57.997,53H6V19   h52L57.997,53z M58,17H6v-6h52L58,17z M8,14c0-0.552,0.448-1,1-1h12c0.552,0,1,0.448,1,1s-0.448,1-1,1H9C8.448,15,8,14.552,8,14z    M54,14c0-0.552,0.447-1,1-1s1,0.448,1,1s-0.447,1-1,1S54,14.552,54,14z M32,41h21c0.552,0,1-0.448,1-1V24c0-0.552-0.448-1-1-1H32   c-0.552,0-1,0.448-1,1v16C31,40.552,31.448,41,32,41z M44.718,39L48,35.062L51.282,39H44.718z M33,25h19v11.738l-3.232-3.878   c-0.38-0.456-1.156-0.456-1.536,0l-3.123,3.747l-6.357-7.265c-0.193-0.22-0.462-0.353-0.765-0.341   c-0.292,0.003-0.569,0.135-0.756,0.36L33,33.238V25z M33,36.362l4.019-4.822l5.795,6.623l-0.582,0.698   c-0.036,0.042-0.048,0.094-0.076,0.14H33V36.362z M45,32.5c1.654,0,3-1.346,3-3s-1.346-3-3-3s-3,1.346-3,3S43.346,32.5,45,32.5z    M45,28.5c0.551,0,1,0.449,1,1s-0.449,1-1,1s-1-0.449-1-1S44.449,28.5,45,28.5z M9,35c0-0.552,0.448-1,1-1h16c0.552,0,1,0.448,1,1   s-0.448,1-1,1H10C9.448,36,9,35.552,9,35z M9,40c0-0.552,0.448-1,1-1h16c0.552,0,1,0.448,1,1s-0.448,1-1,1H10   C9.448,41,9,40.552,9,40z M9,46c0-0.552,0.448-1,1-1h43c0.552,0,1,0.448,1,1s-0.448,1-1,1H10C9.448,47,9,46.552,9,46z M10,31h16   c0.552,0,1-0.448,1-1v-6c0-0.552-0.448-1-1-1H10c-0.552,0-1,0.448-1,1v6C9,30.552,9.448,31,10,31z M11,25h14v4H11V25z"/></g><text x="0" y="79" fill="#000000" font-size="5px" font-weight="bold" font-family="'Helvetica Neue', Helvetica, Arial-Unicode, Arial, Sans-serif">Created by mim studio</text><text x="0" y="84" fill="#000000" font-size="5px" font-weight="bold" font-family="'Helvetica Neue', Helvetica, Arial-Unicode, Arial, Sans-serif">from the Noun Project</text></svg>