<svg xmlns="http://www.w3.org/2000/svg" viewBox="0 0 64 80" x="0px" y="0px"><title>book, read</title><g><path d="M8,44.71C24.1,42,30.84,48.91,30.9,49s0,0,0,0l.15.13.08.06a1.46,1.46,0,0,0,.85.27,1.49,1.49,0,0,0,.86-.27l0,0a1.37,1.37,0,0,0,.18-.16h0c.07-.07,6.81-7,22.94-4.27a1.49,1.49,0,0,0,1.74-1.48v-30a1.49,1.49,0,0,0-1.25-1.48C42.3,9.41,34.67,13.9,32,16c-2.67-2.09-10.3-6.58-24.52-4.2a1.49,1.49,0,0,0-1.25,1.48v30A1.49,1.49,0,0,0,8,44.71ZM9.23,14.55C24.45,12.41,30.84,19,30.9,19a1.55,1.55,0,0,0,1.1.48h0A1.51,1.51,0,0,0,33.1,19c.06-.06,6.46-6.59,21.68-4.46V41.49C43.67,40,36.88,42.81,33.5,44.92V23.39a1.5,1.5,0,0,0-3,0V44.91c-2.71-1.69-7.65-3.83-15.27-3.83a45,45,0,0,0-6,.41Zm3.57,6.08A1.49,1.49,0,0,1,14.19,19c.32,0,7.86-.52,12.52,3.29a1.5,1.5,0,0,1,.21,2.11,1.48,1.48,0,0,1-1.16.55,1.52,1.52,0,0,1-1-.33C21.08,21.6,14.47,22,14.4,22A1.51,1.51,0,0,1,12.8,20.63Zm12,12.05c-3.73-3.05-10.34-2.63-10.41-2.62a1.5,1.5,0,0,1-.21-3c.32,0,7.86-.51,12.52,3.3a1.5,1.5,0,0,1,.21,2.11,1.5,1.5,0,0,1-2.11.21Zm12.28-8.25a1.5,1.5,0,0,1,.21-2.11C42,18.51,49.5,19,49.82,19a1.5,1.5,0,1,1-.21,3c-.07,0-6.68-.42-10.41,2.63a1.52,1.52,0,0,1-1,.33A1.48,1.48,0,0,1,37.09,24.43Zm0,8a1.5,1.5,0,0,1,.21-2.11C42,26.55,49.5,27,49.82,27.06a1.5,1.5,0,0,1-.21,3c-.07,0-6.68-.43-10.41,2.62a1.5,1.5,0,0,1-2.11-.21ZM62,18.38V48.29a1.49,1.49,0,0,1-1.74,1.48l-5-.83a39.12,39.12,0,0,0-6.52-.57c-7.27,0-10.68,2.15-12.83,4a5.87,5.87,0,0,1-7.84,0c-2.15-1.87-5.55-4-12.83-4a39.12,39.12,0,0,0-6.52.57l-5,.83a1.49,1.49,0,0,1-1.74-1.48V18.38a1.5,1.5,0,0,1,3,0V46.52L8.18,46a43.08,43.08,0,0,1,7-.61c6.45,0,11,1.47,14.8,4.76a3,3,0,0,0,3.9,0c3.78-3.29,8.35-4.76,14.8-4.76a43,43,0,0,1,7,.61l3.23.54V18.38a1.5,1.5,0,1,1,3,0Z"/></g><text x="0" y="79" fill="#000000" font-size="5px" font-weight="bold" font-family="'Helvetica Neue', Helvetica, Arial-Unicode, Arial, Sans-serif"></text><text x="0" y="84" fill="#000000" font-size="5px" font-weight="bold" font-family="'Helvetica Neue', Helvetica, Arial-Unicode, Arial, Sans-serif"></text></svg>