<svg xmlns="http://www.w3.org/2000/svg" xmlns:xlink="http://www.w3.org/1999/xlink" version="1.1" x="0px" y="0px" viewBox="0 0 100 125" enable-background="new 0 0 100 100" xml:space="preserve"><g><polygon points="22.875,15.024 20.378,12.529 14.197,18.713 11.727,16.244 9.231,18.739 14.197,23.704  "/><path d="M27.104,6.44H5v22.104h22.104V6.44z M23.575,25.016H8.529V9.969h15.046V25.016z"/><polygon points="22.875,47.532 20.378,45.037 14.197,51.22 11.727,48.752 9.231,51.248 14.197,56.212  "/><path d="M27.104,38.947H5v22.105h22.104V38.947z M23.575,57.523H8.529V42.477h15.046V57.523z"/><path d="M27.104,71.455H5V93.56h22.104V71.455z M23.575,90.031H8.529V74.984h15.046V90.031z"/><rect x="39.272" y="15.729" width="55.728" height="3.528"/><rect x="39.272" y="48.236" width="55.728" height="3.527"/><rect x="39.272" y="80.743" width="55.728" height="3.528"/></g><text x="0" y="115" fill="#000000" font-size="5px" font-weight="bold" font-family="'Helvetica Neue', Helvetica, Arial-Unicode, Arial, Sans-serif"></text><text x="0" y="120" fill="#000000" font-size="5px" font-weight="bold" font-family="'Helvetica Neue', Helvetica, Arial-Unicode, Arial, Sans-serif"></text></svg>