<svg xmlns="http://www.w3.org/2000/svg" xmlns:xlink="http://www.w3.org/1999/xlink" version="1.1" x="0px" y="0px" viewBox="0 0 66 82.5" enable-background="new 0 0 66 66" xml:space="preserve"><g><rect x="9.63574" y="6.0459" width="2.47754" height="2"/><rect x="15.80469" y="6.0459" width="2.47754" height="2"/><rect x="21.97266" y="6.0459" width="2.47754" height="2"/><path d="M63.29004,1H2.70996v64h60.58008V1z M61.29004,6.0459H32.2002V3h29.08984V6.0459z M32.2002,8.0459h29.08984v3.04785   H32.2002V8.0459z M30.2002,3v8.09375H4.70996V3H30.2002z M4.70996,63V13.09375h56.58008V63H4.70996z"/><path d="M6.92285,60.7832h52.15137V15.30859H6.92285V60.7832z M8.92285,17.30859h48.15137V58.7832H30.85083l6.78979-15.23193   l-1.82617-0.81445L28.66162,58.7832H8.92285V17.30859z"/><rect x="13.86523" y="22.10303" width="10.7041" height="2"/><rect x="30.79297" y="22.10303" width="21.37207" height="2"/><rect x="41.46094" y="33.3833" width="10.7041" height="2"/><rect x="13.86523" y="33.3833" width="16.03809" height="2"/><rect x="36.12695" y="27.74316" width="16.03809" height="2"/><rect x="13.86523" y="27.74316" width="17.81641" height="2"/><rect x="33.53223" y="33.3833" width="3.70898" height="2"/><rect x="14.79004" y="39.35303" width="15.11328" height="2"/><rect x="39.24121" y="39.35303" width="13.11328" height="2"/><polygon points="28.8623,53.51904 25.79297,50.44922 28.8623,47.37988 27.44824,45.96582 22.96484,50.44922 27.44824,54.93311  "/><polygon points="37.13477,47.37988 40.2041,50.44922 37.13477,53.51904 38.54883,54.93311 43.03223,50.44922 38.54883,45.96582     "/><rect x="46.8125" y="49.10303" width="5.54199" height="2"/><rect x="14.79004" y="49.10303" width="5.54102" height="2"/><rect x="44.8125" y="53.66553" width="7.54199" height="2"/><rect x="14.79004" y="53.66553" width="7.54102" height="2"/></g><text x="0" y="81" fill="#000000" font-size="5px" font-weight="bold" font-family="'Helvetica Neue', Helvetica, Arial-Unicode, Arial, Sans-serif">Created by Vectors Point</text><text x="0" y="86" fill="#000000" font-size="5px" font-weight="bold" font-family="'Helvetica Neue', Helvetica, Arial-Unicode, Arial, Sans-serif">from the Noun Project</text></svg>