<svg xmlns="http://www.w3.org/2000/svg" viewBox="0 0 64 80" x="0px" y="0px"><title>Fruits Vegetables icon</title><desc>Fruits Vegetables icon for website, application, printing, document, poster design, etc.</desc><metadata><?xpacket begin="&#65279;" id="W5M0MpCehiHzreSzNTczkc9d"?><x:xmpmeta xmlns:x="adobe:ns:meta/" x:xmptk="Adobe XMP Core 6.0-c002 79.164352, 2020/01/30-15:50:38        "/><?xpacket end="w"?></metadata><g><path d="M18,60H16.2a5.026,5.026,0,0,1-4.95-4.293L8.562,36.858a1,1,0,0,0-1.981.284L9.273,55.99A7.036,7.036,0,0,0,16.2,62H18a1,1,0,0,0,0-2Z"/><path d="M30,50a1,1,0,0,0-1,1v4a3,3,0,0,0,6,0V43a3,3,0,0,0-6,0v4a1,1,0,0,0,2,0V43a1,1,0,0,1,2,0V55a1,1,0,0,1-2,0V51A1,1,0,0,0,30,50Z"/><path d="M16,40a3,3,0,0,0-3,3V55a3,3,0,0,0,6,0V43A3,3,0,0,0,16,40Zm1,15a1,1,0,0,1-2,0V43a1,1,0,0,1,2,0Z"/><path d="M21,43V55a3,3,0,0,0,6,0V43a3,3,0,0,0-6,0Zm4,0V55a1,1,0,0,1-2,0V43a1,1,0,0,1,2,0Z"/><path d="M46,38a1,1,0,0,0,0-2H39a1,1,0,0,0,0,2Z"/><path d="M25,36H13a1,1,0,0,0,0,2H25a1,1,0,0,0,0-2Z"/><path d="M57.925,43.037A4.987,4.987,0,0,0,60,39a1,1,0,0,0-1-1H57.3l.572-4H59a3,3,0,0,0,0-6H52.772l.843-1.924A3.855,3.855,0,0,0,56,26.888a4.006,4.006,0,0,0,3.864-2.965,3.825,3.825,0,0,0,.128-1.177,3.974,3.974,0,0,0,.678-6.421,5.9,5.9,0,0,0,.558-1.355,6.032,6.032,0,0,0-1.51-5.753,1,1,0,1,0-1.43,1.4,3.991,3.991,0,0,1-1.473,6.546,1,1,0,0,0-.654.913,2.892,2.892,0,0,1-.091.691A2.989,2.989,0,0,1,50.3,18.8c0-.008-.01-.014-.013-.023A3,3,0,0,1,51.67,15.39a1,1,0,0,0-1-1.732A5.007,5.007,0,0,0,48.2,18.394a2.822,2.822,0,0,1-1.347-.027,2.951,2.951,0,0,1-1.9-1.584c-.007-.015-.022-.024-.03-.038a2.982,2.982,0,0,1-.291-1.341,1,1,0,0,0-.979-1.022,1.023,1.023,0,0,0-1.021.978,5.015,5.015,0,0,0,.17,1.374,2.9,2.9,0,0,1-1.742.08A2.965,2.965,0,0,1,39.5,15.786l-.006-.012-.007-.006A2.968,2.968,0,0,1,41.1,11.026a1,1,0,0,0,.74-.814l.026-.191a1.852,1.852,0,0,1,.036-.227A3.992,3.992,0,0,1,44.767,6.97,5.951,5.951,0,0,0,45.473,11a1,1,0,1,0,1.732-1,3.975,3.975,0,0,1-.144-3.711l.005-.008a3.989,3.989,0,0,1,7.578,2.06,1,1,0,0,0,1.992.173A5.988,5.988,0,0,0,45.578,4.84a5.993,5.993,0,0,0-5.6,4.44l0,.017a4.951,4.951,0,0,0-2.532,6.959,3.92,3.92,0,0,0-.543.856l-.858-1.82a5.611,5.611,0,0,0-3.392-2.956,5.481,5.481,0,0,0-.825-.183L31.5,6.806a1,1,0,0,0-2,.12l.316,5.277a5.58,5.58,0,0,0-.955.3L27.5,7.725a1,1,0,0,0-1.924.55l.034.118-.086-.088a1,1,0,0,0-1.414-.024l-2.963,2.866a1,1,0,0,0,.144,1.554l4.47,2.951a5.417,5.417,0,0,0-.254.805,5.577,5.577,0,0,0-.112,1.706,9.038,9.038,0,0,0-4,1.817l-.687-.687a1,1,0,0,0-1.414,1.414l.069.069a5,5,0,0,0-3.522,3.11l-.115.306-2.386-.826a1,1,0,1,0-.654,1.89l20.1,6.958a1,1,0,0,1-.654,1.891L5.674,24.946A1,1,0,0,1,5.563,23.1a.989.989,0,0,1,.764-.046l2.577.892a1,1,0,1,0,.655-1.889l-2.578-.892A3,3,0,1,0,5.02,26.835L8.384,28H5a3,3,0,0,0,0,6H25.716l5.763,1.995a3,3,0,1,0,1.962-5.67L32.5,30H59a1,1,0,0,1,0,2H38.452a1,1,0,0,0,0,2h17.4l-.621,4.341a4.965,4.965,0,0,0-1.5.911l.018-.144a2.761,2.761,0,0,0-.671-2.172,2.854,2.854,0,0,0-4.146,0,2.761,2.761,0,0,0-.671,2.172l.367,2.935C48.414,42.025,48.205,42,48,42a7.956,7.956,0,0,0-5,1.765V43a3,3,0,0,0-6,0V55a2.989,2.989,0,0,0,5.032,2.193A12.963,12.963,0,0,0,44,60H22a1,1,0,0,0,0,2H47.8A.948.948,0,0,0,47.9,62c.036,0,.073.005.1.005a7.89,7.89,0,0,0,3-.59A7.89,7.89,0,0,0,54,62c1.8,0,3.562-1.173,5.089-3.392a1,1,0,0,0-1.649-1.133C56.321,59.1,55.1,60,54,60a5.943,5.943,0,0,1-2.57-.585,1,1,0,0,0-.86,0A5.944,5.944,0,0,1,48.021,60c-.027,0-.052-.005-.078-.006C44.928,59.915,42,53.65,42,50a6.006,6.006,0,0,1,6-6,5.578,5.578,0,0,1,.877.077l.007.056a2.133,2.133,0,0,0,4.232,0l.007-.055A5.578,5.578,0,0,1,54,44a6.006,6.006,0,0,1,6,6,12.874,12.874,0,0,1-.864,4.13,1,1,0,1,0,1.877.688A14.688,14.688,0,0,0,62,50,8,8,0,0,0,57.925,43.037ZM5,32a1,1,0,0,1,0-2h9.161l5.778,2ZM58,19.283a4.7,4.7,0,0,0,.1-.505,6.019,6.019,0,0,0,1.314-.9,1.987,1.987,0,0,1-.826,3.306,1,1,0,0,0-.67,1.206,1.971,1.971,0,0,1,.008,1.014,2,2,0,0,1-2.45,1.414,1.946,1.946,0,0,1-1.021-.669l.69-1.574a5.041,5.041,0,0,0,.521-.258A4.971,4.971,0,0,0,58,19.283Zm-5.208,3.682L50.573,28h-6.3l.226-.844a1,1,0,0,0,.015-.455l-1.588-7.916a5.063,5.063,0,0,0,.776-.245,4.971,4.971,0,0,0,2.026,1.54l1.233,6.026a1,1,0,0,0,.86.792.961.961,0,0,0,.119.007,1,1,0,0,0,.905-.572l1.888-3.995a4.542,4.542,0,0,0,2.056.627Zm-4.027-2.636a5.03,5.03,0,0,0,.413.624l-.857,1.812-.473-2.313A4.929,4.929,0,0,0,48.764,20.329ZM40.893,18.81l.359,1.787a1.953,1.953,0,0,1-1.227.081,2,2,0,0,1-1.414-2.45,1.919,1.919,0,0,1,.165-.36,4.952,4.952,0,0,0,1.767.878C40.659,18.777,40.777,18.787,40.893,18.81Zm-1.385,3.8a4,4,0,0,0,1.03.136,3.942,3.942,0,0,0,1.11-.171l.861,4.29L42.205,28h-.179L39.48,22.6ZM39.815,28H37.84a1,1,0,0,0,.2-.081l1.369-.79ZM32.949,14.69l-1.047.6a1,1,0,1,0,1,1.732l1.369-.79,1.283,2.723-1.152.665a1,1,0,1,0,1,1.732l1.008-.581,2.139,4.538-1.513.874a.994.994,0,0,0,.2,1.813H33.75l-1.1-1.589,2.523-1.456a1,1,0,0,0-1-1.733L31.5,24.762,29.786,22.29,31.8,21.125a1,1,0,0,0-1-1.733l-2.163,1.249-.629-.908a3.6,3.6,0,0,1,4.034-5.489A3.6,3.6,0,0,1,32.949,14.69Zm-9.518-2.971,1.349-1.3,2,2.064.331,1.157c-.105.1-.209.2-.3.309ZM17.713,24.586a2.991,2.991,0,0,1,2.864-1.949l-.29.776a2.948,2.948,0,0,1-1.786,1.74l-.885-.306Zm3.194,1.4a4.951,4.951,0,0,0,1.253-1.872l.148-.4a1,1,0,0,0,1.4-1.424l-.876-.876a6.856,6.856,0,0,1,3.1-1.3,5.512,5.512,0,0,0,.434.76L31.315,28H26.726ZM41,55a1,1,0,0,1-2,0V43a1,1,0,0,1,2,0v3.136A7.939,7.939,0,0,0,40,50a15.109,15.109,0,0,0,1.043,5ZM57,40h.829A3.006,3.006,0,0,1,55,42h-.829A3.006,3.006,0,0,1,57,40Zm-6.132,3.884L50.24,38.86a.766.766,0,1,1,1.52,0l-.628,5.023A.137.137,0,0,1,50.868,43.884Z"/><path d="M55.4,46.188a1,1,0,0,0-.936,1.768,2.73,2.73,0,0,1,1.292,1.484,1,1,0,1,0,1.879-.683A4.729,4.729,0,0,0,55.4,46.188Z"/></g><text x="0" y="79" fill="#000000" font-size="5px" font-weight="bold" font-family="'Helvetica Neue', Helvetica, Arial-Unicode, Arial, Sans-serif">Created by Tippawan Sookruay</text><text x="0" y="84" fill="#000000" font-size="5px" font-weight="bold" font-family="'Helvetica Neue', Helvetica, Arial-Unicode, Arial, Sans-serif">from the Noun Project</text></svg>